<mxfile host="app.diagrams.net" modified="2022-05-19T09:03:22.835Z" agent="5.0 (Windows NT 10.0; Win64; x64) AppleWebKit/537.36 (KHTML, like Gecko) Chrome/101.0.4951.67 Safari/537.36" etag="A-6n9sx9yTJUxcA_hvcQ" version="18.0.7" type="github">
  <diagram id="N1W1Y5ectTIntLD4AcZx" name="Homepage">
    <mxGraphModel dx="1335" dy="742" grid="1" gridSize="10" guides="1" tooltips="1" connect="1" arrows="1" fold="1" page="1" pageScale="1" pageWidth="827" pageHeight="1169" background="#F1FAEE" math="0" shadow="0">
      <root>
        <mxCell id="0" />
        <mxCell id="1" parent="0" />
        <mxCell id="Pu7G0L3WyXcyrQ7NVIrJ-1" value="" style="whiteSpace=wrap;html=1;rounded=0;shadow=0;labelBackgroundColor=none;strokeColor=#457B9D;strokeWidth=1;fillColor=none;fontFamily=Verdana;fontSize=12;fontColor=#1D3557;align=center;comic=1;" vertex="1" parent="1">
          <mxGeometry x="20" y="80" width="1060" height="750" as="geometry" />
        </mxCell>
        <mxCell id="1CWAUIRQ8vxsbGQyfzS9-1" value="Search" style="strokeWidth=1;shadow=0;dashed=0;align=center;html=1;shape=mxgraph.mockup.forms.searchBox;strokeColor=#457B9D;mainText=;strokeColor2=#008cff;fontColor=#1D3557;fontSize=17;align=left;spacingLeft=3;rounded=0;fillColor=#A8DADC;" vertex="1" parent="1">
          <mxGeometry x="40" y="99.25" width="780" height="34.5" as="geometry" />
        </mxCell>
        <mxCell id="1CWAUIRQ8vxsbGQyfzS9-2" value="Sign in" style="dashed=0;align=center;fontSize=12;shape=rect;fillColor=#A8DADC;strokeColor=none;fontStyle=1;shadow=1;fontColor=#1D3557;rounded=0;" vertex="1" parent="1">
          <mxGeometry x="840" y="99.25" width="100" height="36" as="geometry" />
        </mxCell>
        <mxCell id="1CWAUIRQ8vxsbGQyfzS9-5" value="Sign up" style="dashed=0;align=center;fontSize=12;shape=rect;fillColor=#A8DADC;strokeColor=none;fontStyle=1;shadow=1;rounded=0;fontColor=#1D3557;" vertex="1" parent="1">
          <mxGeometry x="960" y="99.25" width="100" height="36" as="geometry" />
        </mxCell>
        <mxCell id="1CWAUIRQ8vxsbGQyfzS9-9" value="" style="verticalLabelPosition=bottom;shadow=0;dashed=0;align=center;html=1;verticalAlign=top;strokeWidth=1;shape=mxgraph.mockup.graphics.simpleIcon;strokeColor=#457B9D;rounded=0;fillColor=#A8DADC;fontColor=#1D3557;" vertex="1" parent="1">
          <mxGeometry x="40" y="160" width="560" height="280" as="geometry" />
        </mxCell>
        <mxCell id="1CWAUIRQ8vxsbGQyfzS9-10" value="" style="verticalLabelPosition=bottom;shadow=0;dashed=0;align=center;html=1;verticalAlign=top;strokeWidth=1;shape=mxgraph.mockup.graphics.simpleIcon;strokeColor=#457B9D;rounded=0;fillColor=#A8DADC;fontColor=#1D3557;" vertex="1" parent="1">
          <mxGeometry x="480" y="480" width="560" height="320" as="geometry" />
        </mxCell>
      </root>
    </mxGraphModel>
  </diagram>
</mxfile>
